<?xml version="1.0" encoding="UTF-8" standalone="no"?>
<!DOCTYPE svg PUBLIC "-//W3C//DTD SVG 1.1//EN"
 "http://www.w3.org/Graphics/SVG/1.1/DTD/svg11.dtd">
<!-- Generated by graphviz version 14.1.5 (20260411.2331)
 -->
<!-- Title: modules Pages: 1 -->
<svg width="498pt" height="558pt"
 viewBox="0.00 0.00 498.00 558.00" xmlns="http://www.w3.org/2000/svg" xmlns:xlink="http://www.w3.org/1999/xlink">
<g id="graph0" class="graph" transform="scale(1 1) rotate(0) translate(4 554.12)">
<title>modules</title>
<g id="clust1" class="cluster">
<title>cluster_trio</title>
<path fill="none" stroke="#9aa7b0" d="M20,-284.31C20,-284.31 326,-284.31 326,-284.31 332,-284.31 338,-290.31 338,-296.31 338,-296.31 338,-473.12 338,-473.12 338,-479.12 332,-485.12 326,-485.12 326,-485.12 20,-485.12 20,-485.12 14,-485.12 8,-479.12 8,-473.12 8,-473.12 8,-296.31 8,-296.31 8,-290.31 14,-284.31 20,-284.31"/>
<text xml:space="preserve" text-anchor="middle" x="173" y="-469.72" font-family="Helvetica,Arial,sans-serif" font-size="12.00">The Input / Output / server trio (e.g. &quot;dendro&quot;)</text>
</g>
<g id="clust2" class="cluster">
<title>cluster_app</title>
<path fill="none" stroke="#9aa7b0" d="M87,-65C87,-65 470,-65 470,-65 476,-65 482,-71 482,-77 482,-77 482,-245.06 482,-245.06 482,-251.06 476,-257.06 470,-257.06 470,-257.06 87,-257.06 87,-257.06 81,-257.06 75,-251.06 75,-245.06 75,-245.06 75,-77 75,-77 75,-71 81,-65 87,-65"/>
<text xml:space="preserve" text-anchor="middle" x="278.5" y="-241.66" font-family="Helvetica,Arial,sans-serif" font-size="12.00">rnaseq() composes many such trios</text>
</g>
<!-- dendroInput -->
<g id="node1" class="node">
<title>dendroInput</title>
<path fill="#eaf2fb" stroke="#2780e3" stroke-width="1.3" d="M162.15,-448.37C162.15,-448.37 35.85,-448.37 35.85,-448.37 29.85,-448.37 23.85,-442.37 23.85,-436.37 23.85,-436.37 23.85,-417.59 23.85,-417.59 23.85,-411.59 29.85,-405.59 35.85,-405.59 35.85,-405.59 162.15,-405.59 162.15,-405.59 168.15,-405.59 174.15,-411.59 174.15,-417.59 174.15,-417.59 174.15,-436.37 174.15,-436.37 174.15,-442.37 168.15,-448.37 162.15,-448.37"/>
<text xml:space="preserve" text-anchor="middle" x="99" y="-428.33" font-family="Helvetica,Arial,sans-serif" font-size="12.00">dendroInput(id, eselist)</text>
<text xml:space="preserve" text-anchor="middle" x="99" y="-415.58" font-family="Helvetica,Arial,sans-serif" font-size="12.00">sidebar controls</text>
</g>
<!-- dendro -->
<g id="node3" class="node">
<title>dendro</title>
<path fill="#dcecfc" stroke="#2780e3" stroke-width="1.6" d="M309.65,-343.09C309.65,-343.09 186.35,-343.09 186.35,-343.09 180.35,-343.09 174.35,-337.09 174.35,-331.09 174.35,-331.09 174.35,-312.31 174.35,-312.31 174.35,-306.31 180.35,-300.31 186.35,-300.31 186.35,-300.31 309.65,-300.31 309.65,-300.31 315.65,-300.31 321.65,-306.31 321.65,-312.31 321.65,-312.31 321.65,-331.09 321.65,-331.09 321.65,-337.09 315.65,-343.09 309.65,-343.09"/>
<text xml:space="preserve" text-anchor="middle" x="248" y="-323.05" font-family="Helvetica,Arial,sans-serif" font-size="12.00">dendro(id, eselist)</text>
<text xml:space="preserve" text-anchor="middle" x="248" y="-310.3" font-family="Helvetica,Arial,sans-serif" font-size="12.00">server (moduleServer)</text>
</g>
<!-- dendroInput&#45;&gt;dendro -->
<g id="edge1" class="edge">
<title>dendroInput&#45;&gt;dendro</title>
<path fill="none" stroke="#5a6b7a" stroke-width="1.1" stroke-dasharray="5,2" d="M129.15,-405.08C154.92,-387.22 191.81,-361.65 217.64,-343.75"/>
<text xml:space="preserve" text-anchor="middle" x="214.6" y="-375.61" font-family="Helvetica,Arial,sans-serif" font-size="10.50"> &#160;shared id</text>
<text xml:space="preserve" text-anchor="middle" x="214.6" y="-364.36" font-family="Helvetica,Arial,sans-serif" font-size="10.50"> &#160;via ns(id) &#160;</text>
</g>
<!-- dendroOutput -->
<g id="node2" class="node">
<title>dendroOutput</title>
<path fill="#eaf2fb" stroke="#2780e3" stroke-width="1.3" d="M310.4,-448.37C310.4,-448.37 215.6,-448.37 215.6,-448.37 209.6,-448.37 203.6,-442.37 203.6,-436.37 203.6,-436.37 203.6,-417.59 203.6,-417.59 203.6,-411.59 209.6,-405.59 215.6,-405.59 215.6,-405.59 310.4,-405.59 310.4,-405.59 316.4,-405.59 322.4,-411.59 322.4,-417.59 322.4,-417.59 322.4,-436.37 322.4,-436.37 322.4,-442.37 316.4,-448.37 310.4,-448.37"/>
<text xml:space="preserve" text-anchor="middle" x="263" y="-428.33" font-family="Helvetica,Arial,sans-serif" font-size="12.00">dendroOutput(id)</text>
<text xml:space="preserve" text-anchor="middle" x="263" y="-415.58" font-family="Helvetica,Arial,sans-serif" font-size="12.00">plot/table slot</text>
</g>
<!-- dendroOutput&#45;&gt;dendro -->
<g id="edge2" class="edge">
<title>dendroOutput&#45;&gt;dendro</title>
<path fill="none" stroke="#5a6b7a" stroke-width="1.1" stroke-dasharray="5,2" d="M259.96,-405.08C257.36,-387.16 253.63,-361.48 251.03,-343.57"/>
</g>
<!-- tabs -->
<g id="node4" class="node">
<title>tabs</title>
<path fill="#fbf3e0" stroke="#c9922a" stroke-width="1.3" d="M318.65,-220.31C318.65,-220.31 177.35,-220.31 177.35,-220.31 171.35,-220.31 165.35,-214.31 165.35,-208.31 165.35,-208.31 165.35,-176.78 165.35,-176.78 165.35,-170.78 171.35,-164.78 177.35,-164.78 177.35,-164.78 318.65,-164.78 318.65,-164.78 324.65,-164.78 330.65,-170.78 330.65,-176.78 330.65,-176.78 330.65,-208.31 330.65,-208.31 330.65,-214.31 324.65,-220.31 318.65,-220.31"/>
<text xml:space="preserve" text-anchor="middle" x="248" y="-200.27" font-family="Helvetica,Arial,sans-serif" font-size="12.00">nav_menu tabs:</text>
<text xml:space="preserve" text-anchor="middle" x="248" y="-187.52" font-family="Helvetica,Arial,sans-serif" font-size="12.00">PCA · Heatmap · Boxplot</text>
<text xml:space="preserve" text-anchor="middle" x="248" y="-174.77" font-family="Helvetica,Arial,sans-serif" font-size="12.00">Dendrogram · Volcano · ...</text>
</g>
<!-- dendro&#45;&gt;tabs -->
<g id="edge5" class="edge">
<title>dendro&#45;&gt;tabs</title>
<path fill="none" stroke="#5a6b7a" stroke-width="1.1" d="M248,-284.31C248,-278.63 248,-272.59 248,-266.42"/>
<polygon fill="#5a6b7a" stroke="#5a6b7a" stroke-width="1.1" points="250.8,-266.72 248,-258.72 245.2,-266.72 250.8,-266.72"/>
<text xml:space="preserve" text-anchor="middle" x="302.75" y="-266.33" font-family="Helvetica,Arial,sans-serif" font-size="10.50"> &#160;one instance per tab &#160;</text>
</g>
<!-- ui -->
<g id="node5" class="node">
<title>ui</title>
<path fill="#eaf2fb" stroke="#2780e3" stroke-width="1.3" d="M259.15,-123.78C259.15,-123.78 102.85,-123.78 102.85,-123.78 96.85,-123.78 90.85,-117.78 90.85,-111.78 90.85,-111.78 90.85,-93 90.85,-93 90.85,-87 96.85,-81 102.85,-81 102.85,-81 259.15,-81 259.15,-81 265.15,-81 271.15,-87 271.15,-93 271.15,-93 271.15,-111.78 271.15,-111.78 271.15,-117.78 265.15,-123.78 259.15,-123.78"/>
<text xml:space="preserve" text-anchor="middle" x="181" y="-103.74" font-family="Helvetica,Arial,sans-serif" font-size="12.00">app$ui</text>
<text xml:space="preserve" text-anchor="middle" x="181" y="-90.99" font-family="Helvetica,Arial,sans-serif" font-size="12.00">(every *Input()/*Output() pair)</text>
</g>
<!-- tabs&#45;&gt;ui -->
<g id="edge6" class="edge">
<title>tabs&#45;&gt;ui</title>
<path fill="none" stroke="#5a6b7a" stroke-width="1.1" d="M227.17,-164.14C219.39,-153.91 210.55,-142.27 202.7,-131.94"/>
<polygon fill="#5a6b7a" stroke="#5a6b7a" stroke-width="1.1" points="205,-130.34 197.93,-125.66 200.54,-133.73 205,-130.34"/>
</g>
<!-- server -->
<g id="node6" class="node">
<title>server</title>
<path fill="#eaf2fb" stroke="#2780e3" stroke-width="1.3" d="M454.02,-123.78C454.02,-123.78 311.98,-123.78 311.98,-123.78 305.98,-123.78 299.98,-117.78 299.98,-111.78 299.98,-111.78 299.98,-93 299.98,-93 299.98,-87 305.98,-81 311.98,-81 311.98,-81 454.02,-81 454.02,-81 460.02,-81 466.02,-87 466.02,-93 466.02,-93 466.02,-111.78 466.02,-111.78 466.02,-117.78 460.02,-123.78 454.02,-123.78"/>
<text xml:space="preserve" text-anchor="middle" x="383" y="-103.74" font-family="Helvetica,Arial,sans-serif" font-size="12.00">app$server</text>
<text xml:space="preserve" text-anchor="middle" x="383" y="-90.99" font-family="Helvetica,Arial,sans-serif" font-size="12.00">(every module server call)</text>
</g>
<!-- tabs&#45;&gt;server -->
<g id="edge7" class="edge">
<title>tabs&#45;&gt;server</title>
<path fill="none" stroke="#5a6b7a" stroke-width="1.1" d="M289.97,-164.14C306.87,-153.1 326.27,-140.44 342.96,-129.53"/>
<polygon fill="#5a6b7a" stroke="#5a6b7a" stroke-width="1.1" points="344.36,-131.97 349.52,-125.25 341.3,-127.28 344.36,-131.97"/>
</g>
<!-- shinyapp -->
<g id="node8" class="node">
<title>shinyapp</title>
<path fill="#2780e3" stroke="#1c5da0" stroke-width="1.3" d="M353.9,-36C353.9,-36 208.1,-36 208.1,-36 202.1,-36 196.1,-30 196.1,-24 196.1,-24 196.1,-12 196.1,-12 196.1,-6 202.1,0 208.1,0 208.1,0 353.9,0 353.9,0 359.9,0 365.9,-6 365.9,-12 365.9,-12 365.9,-24 365.9,-24 365.9,-30 359.9,-36 353.9,-36"/>
<text xml:space="preserve" text-anchor="middle" x="281" y="-12.97" font-family="Helvetica,Arial,sans-serif" font-size="12.00" fill="white">shiny::shinyApp(ui, server)</text>
</g>
<!-- ui&#45;&gt;shinyapp -->
<g id="edge8" class="edge">
<title>ui&#45;&gt;shinyapp</title>
<path fill="none" stroke="#5a6b7a" stroke-width="1.1" d="M206.49,-80.39C220.49,-68.86 237.89,-54.52 252.35,-42.61"/>
<polygon fill="#5a6b7a" stroke="#5a6b7a" stroke-width="1.1" points="253.93,-44.93 258.33,-37.68 250.37,-40.61 253.93,-44.93"/>
</g>
<!-- server&#45;&gt;shinyapp -->
<g id="edge9" class="edge">
<title>server&#45;&gt;shinyapp</title>
<path fill="none" stroke="#5a6b7a" stroke-width="1.1" d="M357,-80.39C342.72,-68.86 324.98,-54.52 310.22,-42.61"/>
<polygon fill="#5a6b7a" stroke="#5a6b7a" stroke-width="1.1" points="312.09,-40.52 304.11,-37.67 308.58,-44.87 312.09,-40.52"/>
</g>
<!-- eselist -->
<g id="node7" class="node">
<title>eselist</title>
<polygon fill="#dcecfc" stroke="#2780e3" stroke-width="1.6" points="350.27,-550.12 117.73,-550.12 113.73,-546.12 113.73,-514.12 346.27,-514.12 350.27,-518.12 350.27,-550.12"/>
<polyline fill="none" stroke="#2780e3" stroke-width="1.6" points="346.27,-546.12 113.73,-546.12"/>
<polyline fill="none" stroke="#2780e3" stroke-width="1.6" points="346.27,-546.12 346.27,-514.12"/>
<polyline fill="none" stroke="#2780e3" stroke-width="1.6" points="346.27,-546.12 350.27,-550.12"/>
<text xml:space="preserve" text-anchor="middle" x="232" y="-527.09" font-family="Helvetica,Arial,sans-serif" font-size="12.00">ExploratorySummarizedExperimentList</text>
</g>
<!-- eselist&#45;&gt;dendroInput -->
<g id="edge3" class="edge">
<title>eselist&#45;&gt;dendroInput</title>
<path fill="none" stroke="#5a6b7a" stroke-width="1.1" d="M209.14,-513.39C200.73,-506.87 190.67,-499.07 180.08,-490.86"/>
<polygon fill="#5a6b7a" stroke="#5a6b7a" stroke-width="1.1" points="182.04,-488.83 174,-486.14 178.6,-493.25 182.04,-488.83"/>
</g>
<!-- eselist&#45;&gt;dendro -->
<g id="edge4" class="edge">
<title>eselist&#45;&gt;dendro</title>
<path fill="none" stroke="#5a6b7a" stroke-width="1.1" d="M303,-513.39C313.6,-508.14 323.56,-501.35 331.3,-492.58"/>
<polygon fill="#5a6b7a" stroke="#5a6b7a" stroke-width="1.1" points="333.36,-494.5 335.99,-486.44 328.91,-491.1 333.36,-494.5"/>
</g>
</g>
</svg>
