<?xml version="1.0" encoding="UTF-8" standalone="no"?>
<!DOCTYPE svg PUBLIC "-//W3C//DTD SVG 1.1//EN"
 "http://www.w3.org/Graphics/SVG/1.1/DTD/svg11.dtd">
<!-- Generated by graphviz version 14.1.5 (20260411.2331)
 -->
<!-- Title: dataflow Pages: 1 -->
<svg width="1024pt" height="170pt"
 viewBox="0.00 0.00 1024.00 170.00" xmlns="http://www.w3.org/2000/svg" xmlns:xlink="http://www.w3.org/1999/xlink">
<g id="graph0" class="graph" transform="scale(1 1) rotate(0) translate(4 165.78)">
<title>dataflow</title>
<!-- files -->
<g id="node1" class="node">
<title>files</title>
<polygon fill="#fbf3e0" stroke="#c9922a" stroke-width="1.3" points="149.06,-161.78 146.06,-165.78 125.06,-165.78 122.06,-161.78 2.63,-161.78 2.63,-90.62 149.06,-90.62 149.06,-161.78"/>
<text xml:space="preserve" text-anchor="middle" x="75.84" y="-140.3" font-family="Helvetica,Arial,sans-serif" font-size="12.00">Flat files</text>
<text xml:space="preserve" text-anchor="middle" x="75.84" y="-127.55" font-family="Helvetica,Arial,sans-serif" font-size="12.00">(samples, features,</text>
<text xml:space="preserve" text-anchor="middle" x="75.84" y="-114.8" font-family="Helvetica,Arial,sans-serif" font-size="12.00">assay matrices,</text>
<text xml:space="preserve" text-anchor="middle" x="75.84" y="-102.05" font-family="Helvetica,Arial,sans-serif" font-size="12.00">contrasts, diff. results)</text>
</g>
<!-- cli -->
<g id="node2" class="node">
<title>cli</title>
<path fill="#eaf2fb" stroke="#2780e3" stroke-width="1.3" d="M392.36,-144.03C392.36,-144.03 257.93,-144.03 257.93,-144.03 251.93,-144.03 245.93,-138.03 245.93,-132.03 245.93,-132.03 245.93,-110.38 245.93,-110.38 245.93,-104.38 251.93,-98.38 257.93,-98.38 257.93,-98.38 392.36,-98.38 392.36,-98.38 398.36,-98.38 404.36,-104.38 404.36,-110.38 404.36,-110.38 404.36,-132.03 404.36,-132.03 404.36,-138.03 398.36,-144.03 392.36,-144.03"/>
<text xml:space="preserve" text-anchor="middle" x="325.15" y="-122.55" font-family="Helvetica,Arial,sans-serif" font-size="12.00">make_app_from_files.R</text>
<text xml:space="preserve" text-anchor="middle" x="325.15" y="-109.8" font-family="Helvetica,Arial,sans-serif" font-size="12.00">(CLI)</text>
</g>
<!-- files&#45;&gt;cli -->
<g id="edge1" class="edge">
<title>files&#45;&gt;cli</title>
<path fill="none" stroke="#5a6b7a" stroke-width="1.2" d="M149.7,-124.73C176.71,-124.19 207.63,-123.56 235.87,-122.99"/>
<polygon fill="#5a6b7a" stroke="#5a6b7a" stroke-width="1.2" points="235.58,-125.8 243.52,-122.84 235.46,-120.2 235.58,-125.8"/>
</g>
<!-- ese -->
<g id="node5" class="node">
<title>ese</title>
<path fill="#dcecfc" stroke="#2780e3" stroke-width="1.6" d="M707.29,-100.03C707.29,-100.03 510.61,-100.03 510.61,-100.03 504.61,-100.03 498.61,-94.03 498.61,-88.03 498.61,-88.03 498.61,-66.38 498.61,-66.38 498.61,-60.38 504.61,-54.38 510.61,-54.38 510.61,-54.38 707.29,-54.38 707.29,-54.38 713.29,-54.38 719.29,-60.38 719.29,-66.38 719.29,-66.38 719.29,-88.03 719.29,-88.03 719.29,-94.03 713.29,-100.03 707.29,-100.03"/>
<text xml:space="preserve" text-anchor="middle" x="608.95" y="-78.55" font-family="Helvetica,Arial,sans-serif" font-size="12.00">ExploratorySummarizedExperiment</text>
<text xml:space="preserve" text-anchor="middle" x="608.95" y="-65.8" font-family="Helvetica,Arial,sans-serif" font-size="12.00">/ List</text>
</g>
<!-- cli&#45;&gt;ese -->
<g id="edge2" class="edge">
<title>cli&#45;&gt;ese</title>
<path fill="none" stroke="#5a6b7a" stroke-width="1.2" d="M404.64,-108.95C430.61,-104.89 460.13,-100.28 488.46,-95.86"/>
<polygon fill="#5a6b7a" stroke="#5a6b7a" stroke-width="1.2" points="488.75,-98.65 496.23,-94.65 487.89,-93.12 488.75,-98.65"/>
</g>
<!-- robjects -->
<g id="node3" class="node">
<title>robjects</title>
<polygon fill="#fbf3e0" stroke="#c9922a" stroke-width="1.3" points="151.68,-58.41 148.68,-62.41 127.68,-62.41 124.68,-58.41 0,-58.41 0,0 151.68,0 151.68,-58.41"/>
<text xml:space="preserve" text-anchor="middle" x="75.84" y="-36.93" font-family="Helvetica,Arial,sans-serif" font-size="12.00">Your R analysis</text>
<text xml:space="preserve" text-anchor="middle" x="75.84" y="-24.18" font-family="Helvetica,Arial,sans-serif" font-size="12.00">(matrices, data frames,</text>
<text xml:space="preserve" text-anchor="middle" x="75.84" y="-11.43" font-family="Helvetica,Arial,sans-serif" font-size="12.00">contrast results)</text>
</g>
<!-- constructors -->
<g id="node4" class="node">
<title>constructors</title>
<path fill="#eaf2fb" stroke="#2780e3" stroke-width="1.3" d="M436.61,-61.03C436.61,-61.03 213.68,-61.03 213.68,-61.03 207.68,-61.03 201.68,-55.03 201.68,-49.03 201.68,-49.03 201.68,-27.37 201.68,-27.37 201.68,-21.38 207.68,-15.37 213.68,-15.37 213.68,-15.37 436.61,-15.37 436.61,-15.37 442.61,-15.37 448.61,-21.37 448.61,-27.37 448.61,-27.37 448.61,-49.03 448.61,-49.03 448.61,-55.03 442.61,-61.03 436.61,-61.03"/>
<text xml:space="preserve" text-anchor="middle" x="325.15" y="-39.55" font-family="Helvetica,Arial,sans-serif" font-size="12.00">ExploratorySummarizedExperiment()</text>
<text xml:space="preserve" text-anchor="middle" x="325.15" y="-26.8" font-family="Helvetica,Arial,sans-serif" font-size="12.00">ExploratorySummarizedExperimentList()</text>
</g>
<!-- robjects&#45;&gt;constructors -->
<g id="edge3" class="edge">
<title>robjects&#45;&gt;constructors</title>
<path fill="none" stroke="#5a6b7a" stroke-width="1.2" d="M152.05,-31.94C164.75,-32.4 178.26,-32.9 191.91,-33.39"/>
<polygon fill="#5a6b7a" stroke="#5a6b7a" stroke-width="1.2" points="191.46,-36.18 199.56,-33.67 191.67,-30.58 191.46,-36.18"/>
</g>
<!-- constructors&#45;&gt;ese -->
<g id="edge4" class="edge">
<title>constructors&#45;&gt;ese</title>
<path fill="none" stroke="#5a6b7a" stroke-width="1.2" d="M448.93,-55.2C462.06,-57.01 475.4,-58.86 488.49,-60.67"/>
<polygon fill="#5a6b7a" stroke="#5a6b7a" stroke-width="1.2" points="487.86,-63.41 496.17,-61.74 488.63,-57.87 487.86,-63.41"/>
</g>
<!-- prepareApp -->
<g id="node6" class="node">
<title>prepareApp</title>
<path fill="#eaf2fb" stroke="#2780e3" stroke-width="1.3" d="M859.47,-95.2C859.47,-95.2 781.29,-95.2 781.29,-95.2 775.29,-95.2 769.29,-89.2 769.29,-83.2 769.29,-83.2 769.29,-71.2 769.29,-71.2 769.29,-65.2 775.29,-59.2 781.29,-59.2 781.29,-59.2 859.47,-59.2 859.47,-59.2 865.47,-59.2 871.47,-65.2 871.47,-71.2 871.47,-71.2 871.47,-83.2 871.47,-83.2 871.47,-89.2 865.47,-95.2 859.47,-95.2"/>
<text xml:space="preserve" text-anchor="middle" x="820.38" y="-72.18" font-family="Helvetica,Arial,sans-serif" font-size="12.00">prepareApp()</text>
</g>
<!-- ese&#45;&gt;prepareApp -->
<g id="edge5" class="edge">
<title>ese&#45;&gt;prepareApp</title>
<path fill="none" stroke="#5a6b7a" stroke-width="1.2" d="M719.88,-77.2C733.36,-77.2 746.72,-77.2 759.08,-77.2"/>
<polygon fill="#5a6b7a" stroke="#5a6b7a" stroke-width="1.2" points="758.93,-80.01 766.93,-77.21 758.93,-74.41 758.93,-80.01"/>
</g>
<!-- app -->
<g id="node7" class="node">
<title>app</title>
<path fill="#2780e3" stroke="#1c5da0" stroke-width="1.3" d="M1004.15,-100.03C1004.15,-100.03 933.47,-100.03 933.47,-100.03 927.47,-100.03 921.47,-94.03 921.47,-88.03 921.47,-88.03 921.47,-66.38 921.47,-66.38 921.47,-60.38 927.47,-54.38 933.47,-54.38 933.47,-54.38 1004.15,-54.38 1004.15,-54.38 1010.15,-54.38 1016.15,-60.38 1016.15,-66.38 1016.15,-66.38 1016.15,-88.03 1016.15,-88.03 1016.15,-94.03 1010.15,-100.03 1004.15,-100.03"/>
<text xml:space="preserve" text-anchor="middle" x="968.81" y="-78.55" font-family="Helvetica,Arial,sans-serif" font-size="12.00" fill="white">Shiny app</text>
<text xml:space="preserve" text-anchor="middle" x="968.81" y="-65.8" font-family="Helvetica,Arial,sans-serif" font-size="12.00" fill="white">(ui + server)</text>
</g>
<!-- prepareApp&#45;&gt;app -->
<g id="edge6" class="edge">
<title>prepareApp&#45;&gt;app</title>
<path fill="none" stroke="#5a6b7a" stroke-width="1.2" d="M871.77,-77.2C884.56,-77.2 898.38,-77.2 911.45,-77.2"/>
<polygon fill="#5a6b7a" stroke="#5a6b7a" stroke-width="1.2" points="911.45,-80.01 919.45,-77.21 911.45,-74.41 911.45,-80.01"/>
</g>
</g>
</svg>
